<?xml version="1.0" standalone="no"?><!DOCTYPE svg PUBLIC "-//W3C//DTD SVG 1.1//EN" "http://www.w3.org/Graphics/SVG/1.1/DTD/svg11.dtd"><svg t="1617026805312" class="icon" viewBox="0 0 1024 1024" version="1.1" xmlns="http://www.w3.org/2000/svg" p-id="3599" xmlns:xlink="http://www.w3.org/1999/xlink" width="50" height="50"><defs><style type="text/css"></style></defs><path d="M225.986207 94.490483h559.668965a35.310345 35.310345 0 0 1 35.310345 35.310345v769.05931a35.310345 35.310345 0 0 1-35.310345 35.310345H225.986207a35.310345 35.310345 0 0 1-35.310345-35.310345V129.836138a35.310345 35.310345 0 0 1 35.310345-35.310345zM798.013793 29.166345c42.796138 0 77.612138 32.838621 77.612138 75.387586v818.317241a77.85931 77.85931 0 0 1-77.612138 77.612138H201.480828a77.85931 77.85931 0 0 1-77.612138-77.612138V106.778483C123.86869 58.191448 158.68469 29.166345 201.480828 29.166345H798.013793z m-25.317517 44.349793H230.576552c-38.87669 0-70.514759 26.376828-70.514759 70.514759V885.583448c0 38.912 31.814621 70.550069 70.514759 70.550069h542.084414a70.726621 70.726621 0 0 0 70.514758-70.550069V142.018207c0-38.700138-31.638069-68.502069-70.514758-68.502069z m-137.922207 471.251862c0 29.907862 24.399448 54.30731 54.377931 54.30731 29.907862 0 54.30731-24.364138 54.30731-54.30731 0-29.943172-24.399448-54.377931-54.34262-54.377931s-54.342621 24.434759-54.342621 54.377931z" p-id="3600" fill="#515151"></path></svg>