<?xml version="1.0" standalone="no"?><!DOCTYPE svg PUBLIC "-//W3C//DTD SVG 1.1//EN" "http://www.w3.org/Graphics/SVG/1.1/DTD/svg11.dtd"><svg t="1616721195641" class="icon" viewBox="0 0 1024 1024" version="1.1" xmlns="http://www.w3.org/2000/svg" p-id="5624" width="40" height="40" xmlns:xlink="http://www.w3.org/1999/xlink"><defs><style type="text/css"></style></defs><path d="M837.818182 1000.727273H186.181818c-51.2 0-93.090909-41.890909-93.090909-93.090909V116.363636c0-51.2 41.890909-93.090909 93.090909-93.090909h651.636364c51.2 0 93.090909 41.890909 93.090909 93.090909v791.272728c0 51.2-41.890909 93.090909-93.090909 93.090909zM186.181818 93.090909c-13.963636 0-23.272727 9.309091-23.272727 23.272727v791.272728c0 13.963636 9.309091 23.272727 23.272727 23.272727h651.636364c13.963636 0 23.272727-9.309091 23.272727-23.272727V116.363636c0-13.963636-9.309091-23.272727-23.272727-23.272727H186.181818z" fill="#2c2c2c" p-id="5625"></path><path d="M791.272727 616.727273c0 18.618182-16.290909 34.909091-34.909091 34.909091s-34.909091-16.290909-34.909091-34.909091v-209.454546c0-18.618182 16.290909-34.909091 34.909091-34.909091s34.909091 16.290909 34.909091 34.909091v209.454546z" fill="#2c2c2c" p-id="5626"></path></svg>