<?xml version="1.0" standalone="no"?><!DOCTYPE svg PUBLIC "-//W3C//DTD SVG 1.1//EN" "http://www.w3.org/Graphics/SVG/1.1/DTD/svg11.dtd"><svg t="1617886571341" class="icon" viewBox="0 0 2048 1024" version="1.1" xmlns="http://www.w3.org/2000/svg" p-id="3134" width="96" height="48" xmlns:xlink="http://www.w3.org/1999/xlink"><defs><style type="text/css"></style></defs><path d="M929.28 665.6c-51.2 7.68-92.16 53.76-94.72 104.96-5.12 61.44 35.84 107.52 81.92 120.32 5.12 2.56 12.8 2.56 17.92 5.12h25.6c61.44-7.68 104.96-64 99.84-125.44-5.12-66.56-66.56-115.2-130.56-104.96z m563.2-529.92c0-2.56-2.56-5.12-2.56-7.68H504.32c-17.92 2.56-33.28 12.8-46.08 25.6-15.36 15.36-23.04 33.28-30.72 53.76-2.56 5.12-2.56 7.68-5.12 12.8v512h17.92c2.56 0 5.12 0 5.12-5.12 7.68-17.92 17.92-35.84 30.72-51.2 51.2-64 158.72-92.16 238.08-12.8 17.92 17.92 35.84 40.96 48.64 64 2.56 2.56 2.56 5.12 7.68 5.12 5.12 0 12.8 2.56 17.92 0 5.12-2.56 5.12-10.24 7.68-15.36 20.48-40.96 51.2-74.24 94.72-89.6 56.32-23.04 107.52-10.24 153.6 28.16 25.6 20.48 43.52 46.08 58.88 74.24 0 2.56 2.56 2.56 5.12 2.56h110.08V179.2c0-15.36 10.24-28.16 28.16-28.16h232.96c10.24 0 15.36-5.12 12.8-15.36z m-542.72 194.56c7.68 2.56 10.24 12.8 10.24 20.48v5.12c-5.12 7.68-12.8 12.8-23.04 10.24h-2.56l-33.28-15.36-48.64 28.16 53.76 35.84 33.28-12.8c7.68-2.56 15.36 0 20.48 5.12l2.56 2.56 2.56 2.56c2.56 7.68 0 17.92-7.68 23.04h-2.56l-7.68 2.56 10.24 7.68c2.56 2.56 5.12 5.12 5.12 7.68v5.12c0 5.12 0 10.24-2.56 12.8-5.12 7.68-15.36 10.24-23.04 5.12l-2.56-2.56-15.36-10.24-2.56 12.8c0 7.68-5.12 12.8-12.8 15.36H896c-10.24 0-15.36-7.68-17.92-17.92v-2.56l2.56-33.28-48.64-30.72v56.32l28.16 17.92c7.68 5.12 10.24 12.8 7.68 20.48v2.56l-2.56 2.56c-5.12 7.68-15.36 10.24-23.04 7.68l-2.56-2.56-7.68-5.12v15.36c0 7.68-5.12 15.36-12.8 17.92h-5.12c-10.24 0-17.92-7.68-17.92-15.36V504.32l-10.24 5.12c-5.12 2.56-12.8 2.56-17.92 0v5.12l-2.56-2.56-2.56-2.56c-5.12-7.68-2.56-17.92 2.56-23.04l2.56-2.56 28.16-17.92V409.6l-46.08 28.16-2.56 35.84c0 7.68-5.12 12.8-12.8 15.36H727.04c-10.24 0-15.36-7.68-17.92-17.92V460.8l-17.92 10.24c-2.56 0-2.56 2.56-5.12 2.56h-5.12c-7.68 0-15.36-5.12-17.92-12.8v-5.12c0-5.12 2.56-10.24 7.68-12.8l2.56-2.56 12.8-7.68c-7.68-2.56-12.8-10.24-12.8-17.92V409.6c2.56-7.68 12.8-12.8 23.04-12.8h2.56l30.72 10.24 53.76-30.72-51.2-33.28-33.28 12.8c-7.68 2.56-15.36 0-20.48-5.12l-2.56-2.56-2.56-2.56v-2.56c-2.56-7.68 2.56-15.36 7.68-20.48l2.56-2.56 10.24-5.12-15.36-7.68c-2.56-2.56-5.12-2.56-5.12-5.12v-5.12c0-5.12 0-10.24 2.56-15.36 5.12-7.68 15.36-10.24 23.04-5.12l2.56 2.56 15.36 10.24v-10.24c0-7.68 5.12-15.36 12.8-17.92h5.12c10.24 0 15.36 7.68 17.92 15.36v2.56l-2.56 33.28 46.08 30.72v-51.2l-25.6-20.48c-5.12-5.12-7.68-12.8-5.12-20.48v-2.56l2.56-5.12c5.12-7.68 15.36-7.68 23.04-5.12l2.56 2.56 2.56 2.56v-15.36c0-7.68 5.12-12.8 10.24-17.92H814.08c7.68 0 15.36 7.68 15.36 15.36v15.36c2.56-2.56 2.56-2.56 5.12-2.56h5.12c5.12 0 7.68 2.56 12.8 5.12l2.56 2.56 2.56 2.56c5.12 7.68 2.56 15.36-2.56 20.48l-2.56 2.56-25.6 20.48v53.76l46.08-28.16v-33.28c0-7.68 5.12-15.36 12.8-17.92h5.12c10.24 0 17.92 7.68 17.92 15.36v12.8l20.48-10.24c7.68-5.12 15.36-2.56 20.48 0l2.56 2.56 2.56 2.56c5.12 7.68 2.56 17.92-2.56 23.04l-2.56 2.56-20.48 12.8 20.48 2.56zM588.8 665.6c-51.2 7.68-92.16 53.76-94.72 107.52-2.56 53.76 30.72 104.96 81.92 117.76 7.68 2.56 12.8 2.56 20.48 5.12h25.6c53.76-7.68 92.16-51.2 97.28-104.96 5.12-74.24-58.88-138.24-130.56-125.44z m1021.44-258.56c-28.16-64-61.44-125.44-97.28-184.32-2.56-2.56-5.12-2.56-7.68-2.56h-248.32v514.56H1305.6c2.56-5.12 2.56-10.24 5.12-12.8 28.16-89.6 133.12-133.12 215.04-76.8 28.16 17.92 48.64 43.52 66.56 71.68 2.56 5.12 5.12 15.36 10.24 17.92 5.12 2.56 15.36 0 20.48 0V450.56c-2.56-15.36-7.68-30.72-12.8-43.52z m-327.68-2.56v-140.8h199.68c5.12 0 7.68 2.56 7.68 5.12 20.48 33.28 40.96 69.12 56.32 107.52 2.56 7.68 5.12 17.92 10.24 28.16H1282.56zM1433.6 665.6c-53.76 10.24-92.16 56.32-94.72 107.52-2.56 58.88 33.28 104.96 87.04 117.76 5.12 0 10.24 2.56 12.8 2.56h25.6c61.44-7.68 104.96-64 97.28-128-5.12-64-66.56-110.08-128-99.84z" fill="#1890ff" p-id="3135"></path></svg>