<?xml version="1.0" standalone="no"?><!DOCTYPE svg PUBLIC "-//W3C//DTD SVG 1.1//EN" "http://www.w3.org/Graphics/SVG/1.1/DTD/svg11.dtd"><svg t="1616979579243" class="icon" viewBox="0 0 1024 1024" version="1.1" xmlns="http://www.w3.org/2000/svg" p-id="2398" width="128" height="128" xmlns:xlink="http://www.w3.org/1999/xlink"><defs><style type="text/css"></style></defs><path d="M880 64H144a80 80 0 0 0-80 80v736a80 80 0 0 0 80 80h736a80 80 0 0 0 80-80V144a80 80 0 0 0-80-80z m30 816a30 30 0 0 1-30 30H144a30 30 0 0 1-30-30V144a30 30 0 0 1 30-30h736a30 30 0 0 1 30 30z" fill="#1296db" p-id="2399"></path><path d="M512 204.5c-169.83 0-307.5 137.67-307.5 307.5S342.17 819.5 512 819.5 819.5 681.83 819.5 512 681.83 204.5 512 204.5zM710.34 455l-18.12 36.45-56-27.69L552.73 512l83.49 48.26 56-27.69L710.34 569l-31.77 15.7 37.68 21.58-20.37 35.43-37.67-21.78 2.24 35.23-40.52 2.64-4.07-62.31-83.49-48.26v96.32l51.92 34.82-22.4 33.8-29.52-19.55V736h-40.74v-43.38l-29.52 19.55-22.4-33.8 51.92-34.82v-96.32l-83.49 48.26-4.07 62.31-40.52-2.64 2.24-35.23-37.67 21.78-20.37-35.43 37.68-21.58-31.77-15.7 18.12-36.45 56 27.69L471.27 512l-83.49-48.26-56 27.69L313.66 455l31.77-15.68-37.68-21.58 20.37-35.43 37.67 21.78-2.24-35.23 40.52-2.64 4.07 62.31 83.49 48.26v-96.34l-51.92-34.82 22.4-33.8 29.52 19.55V288h40.74v43.38l29.52-19.55 22.4 33.8-51.92 34.82v96.32l83.49-48.26 4.07-62.31 40.52 2.64-2.24 35.23 37.67-21.78 20.37 35.43-37.68 21.58z" fill="#1296db" p-id="2400"></path><path d="M209.5 209.5m-35 0a35 35 0 1 0 70 0 35 35 0 1 0-70 0Z" fill="#1296db" p-id="2401"></path><path d="M814.5 209.5m-35 0a35 35 0 1 0 70 0 35 35 0 1 0-70 0Z" fill="#1296db" p-id="2402"></path><path d="M210 814.5m-35 0a35 35 0 1 0 70 0 35 35 0 1 0-70 0Z" fill="#1296db" p-id="2403"></path><path d="M815 814.5m-35 0a35 35 0 1 0 70 0 35 35 0 1 0-70 0Z" fill="#1296db" p-id="2404"></path></svg>