<?xml version="1.0" standalone="no"?><!DOCTYPE svg PUBLIC "-//W3C//DTD SVG 1.1//EN" "http://www.w3.org/Graphics/SVG/1.1/DTD/svg11.dtd"><svg t="1616979614324" class="icon" viewBox="0 0 1325 1024" version="1.1" xmlns="http://www.w3.org/2000/svg" p-id="2996" xmlns:xlink="http://www.w3.org/1999/xlink" width="165.625" height="128"><defs><style type="text/css"></style></defs><path d="M942.20141 0.001545H150.424719c-64.123932 0-116.111655 51.849451-116.111654 115.798806v792.400843c0 63.949355 51.98695 115.798806 116.111654 115.798806h791.776691c64.123932 0 116.111655-51.849451 116.111655-115.798806V115.798806c-0.013132-63.949355-51.98695-115.798806-116.111655-115.798806z m30.961203 908.186517c0 17.024374-13.888163 30.874686-30.961975 30.874687H150.423947c-17.073812 0-30.962747-13.850312-30.962748-30.874687V115.785674c0-17.024374 13.888163-30.874686 30.962748-30.874686h791.778236c17.073812 0 30.961975 13.850312 30.961975 20.210795v803.065507z" p-id="2997" fill="#0ba7fa"></path><path d="M875.751583 348.096272c-2.21157-3.711698-7.024804-4.938374-10.737275-2.712128l-37.973647 22.637111-60.087026-34.699937 60.100158-34.699937 37.437556 21.612821a7.79418 7.79418 0 0 0 3.913312 1.050553c2.712127 0 5.337739-1.399708 6.788429-3.913311 2.162904-3.749549 0.874431-8.538065-2.862758-10.700197l-29.599345-17.086171 25.562439-14.761822c3.749549-2.162904 5.02489-6.949102 2.862758-10.700197s-6.949102-5.02489-10.700196-2.86353l-25.699166 14.835978-0.499785-35.449229c-0.06257-4.325036-3.625182-7.788-7.937086-7.724658-4.325036 0.06257-7.788 3.612823-7.724659 7.937086l0.612566 44.212854-60.774521 35.08617v-71.18736l37.437556-21.612821c3.749549-2.162904 5.02489-6.949102 2.862758-10.700197s-6.949102-5.02489-10.700196-2.86353l-29.599345 17.086171v-35.3743c0-4.325036-3.49927-7.835893-7.835894-7.835893s-7.835893 3.51163-7.835893 7.835893v35.524158l-30.949615-17.299372c-3.774268-2.112694-8.550424-0.762424-10.663119 3.011845-2.111922 3.774268-0.763196 8.550424 3.01339 10.662345l38.599344 21.563384v70.398672l-61.886871-35.724227v-43.22487c0-4.325036-3.512402-7.838211-7.835894-7.83821s-7.835893 3.51163-7.835893 7.83821v34.18702L632.578571 255.767295c-3.749549-2.162904-8.538065-0.874431-10.700196 2.862758-2.162904 3.749549-0.874431 8.538065 2.862758 10.700197l32.749461 18.913053-30.46219 18.163761c-3.711698 2.21157-4.938374 7.024804-2.712127 10.73882 1.461505 2.461849 4.06317 3.824478 6.736674 3.824478 1.361857 0 2.750751-0.363059 3.999828-1.099219l37.973647-22.637111 62.549648 36.112777-62.56278 36.124364-37.437555-21.612821c-3.749549-2.162904-8.538065-0.874431-10.700197 2.863531-2.162904 3.749549-0.874431 8.538065 2.862758 10.700196l29.599346 17.086172-26.49944 15.30023c-3.749549 2.162904-5.02489 6.949102-2.862759 10.700197a7.828941 7.828941 0 0 0 6.78843 3.913312c1.324006 0 2.674277-0.336795 3.913312-1.050554l26.637711-15.374387 0.499786 35.449229c0.06257 4.287958 3.54948 7.724658 7.825078 7.724658h0.111235c4.325036-0.06257 7.788-3.612823 7.724659-7.937086l-0.624925-44.211309 61.873739-35.724227v70.437296l-37.437556 21.612821c-3.749549 2.162904-5.02489 6.949102-2.862758 10.700197a7.828941 7.828941 0 0 0 6.78843 3.913311c1.324006 0 2.674277-0.336795 3.913311-1.050553l29.599346-17.086171v35.374299c0 4.325036 3.49927 7.835893 7.835893 7.835893s7.835893-3.49927 7.835893-7.835893v-35.524158l30.949616 17.299372a7.827396 7.827396 0 0 0 3.812118 1.000343c2.750751 0 5.41344-1.449918 6.850227-4.011415 2.111922-3.774268 0.763196-8.550424-3.013389-10.663118l-38.599344-21.563383V346.524304l60.77452 35.08617v43.224869c0 4.325036 3.512402 7.835893 7.835894 7.835894s7.835893-3.51163 7.835893-7.835894v-34.187019l27.050208 15.612306a7.79418 7.79418 0 0 0 3.913312 1.050554c2.712127 0 5.337739-1.399708 6.788429-3.913312 2.162904-3.749549 0.874431-8.538065-2.862758-10.700197l-27.174575-15.688008 30.46219-18.163761a7.837438 7.837438 0 0 0 2.739163-10.749634zM436.10807 718.029379c-21.488454 9.487425-35.385887 30.836835-35.362713 54.312072 0 32.724742 26.636166 59.360908 59.362454 59.360908s59.362453-26.637711 59.362453-59.360908c0-23.474464-13.89975-44.81306-35.362713-54.312072l-4.525105-1.975195v-474.618448c0-7.011672-8.92507-12.924898-19.512486-12.924898-10.549566 0-19.487768 5.910908-19.487768 12.924898v474.579825l-4.474122 2.013046z m-60.838635-35.624578c-24.649384 23.236544-38.787054 56.024628-38.812545 89.960596 0 33.024459 12.863873 64.062135 36.211652 87.41146s54.398588 36.211653 87.41146 36.211653 64.062135-12.862328 87.411459-36.211653 36.211653-54.398588 36.211653-87.41146c0-33.912794-14.124537-66.699334-38.787054-89.92429l-2.362973-2.250193V192.883942c0-17.62458-9.16299-34.675218-25.187793-46.799841-15.399879-11.675048-35.738131-18.086515-57.260573-18.086515s-41.86224 6.411466-57.286838 18.086515c-15.988498 12.124623-25.187793 29.175261-25.187793 46.799841v487.269121l-2.362973 2.250193zM460.107811 875.802433c-57.06205 0-103.473341-46.411291-103.473342-103.473341 0-30.924897 13.687322-59.985833 37.511713-79.735467l3.636769-3.013389V192.887032c0-12.150115 7.124452-23.975022 19.575056-32.399534C429.070134 152.538053 444.256812 148.162806 460.107811 148.162806s31.036904 4.375246 42.749803 12.324692c12.449059 8.450004 19.575056 20.249419 19.575056 32.399534v496.693204l3.636769 3.013389c23.863014 19.749634 37.511713 48.812115 37.511713 79.735467 0 57.06205-46.410519 103.473341-103.473341 103.473341zM353.833508 244.322441c4.349755 0 7.886876-2.863531 7.886876-6.411466 0-3.54948-3.51163-6.413011-7.886876-6.413011h-27.11355c-4.349755 0-7.886876 2.863531-7.886876 6.413011s3.51163 6.411466 7.886876 6.411466h27.11355z m-27.11046 53.511025c-4.375246 0-7.924727 2.863531-7.886876 6.413011 0 3.54948 3.51163 6.413011 7.886876 6.413011h27.11355c4.349755 0 7.886876-2.863531 7.886876-6.413011s-3.51163-6.413011-7.886876-6.413011h-27.11355z m0 66.299196c-4.375246 0-7.924727 2.863531-7.886876 6.413011 0 3.54948 3.51163 6.413011 7.886876 6.413011h27.11355c4.349755 0 7.886876-2.863531 7.886876-6.413011s-3.51163-6.413011-7.886876-6.413011h-27.11355z m0 132.586805c-4.375246 0-7.924727 2.863531-7.886876 6.413012 0 3.54948 3.51163 6.413011 7.886876 6.413011h27.11355c4.349755 0 7.886876-2.863531 7.886876-6.413011s-3.51163-6.413011-7.886876-6.413012h-27.11355z m0 66.311556c-4.375246 0-7.924727 2.862758-7.886876 6.413011 0 3.54948 3.51163 6.413011 7.886876 6.413012h27.11355c4.349755 0 7.886876-2.862758 7.886876-6.413012s-3.51163-6.413011-7.886876-6.413011h-27.11355zM255.42986 293.180904c12.608187 0 22.528193 5.312247 29.887475 15.935197s11.071753 25.791089 11.071753 45.631101-3.711698 34.879149-11.199982 45.504417c-7.424169 10.559608-17.471632 15.80774-30.015704 15.80774-12.5433 0-22.271734-5.184018-29.119644-15.614624-6.847909-10.367264-10.304694-25.663632-10.304694-45.887559 0-20.223155 3.456012-35.519523 10.304694-45.88756 6.912024-10.304694 16.704573-15.48794 29.37533-15.487939z m0.319801 110.271041c8.76826 0 15.552054-4.223843 20.416272-12.735644s7.295167-20.478841 7.295167-36.095011c0-15.552054-2.495065-27.519867-7.551626-35.840096-4.992447-8.320229-11.775469-12.479958-20.223155-12.479958s-15.040682 4.160501-19.775125 12.479958c-4.671101 8.320229-7.040253 20.416272-7.040254 36.159897 0 32.31997 8.959831 48.511626 26.879494 48.511626z" p-id="2998" fill="#0ba7fa"></path><path d="M326.725365 428.156174c-4.3513 0-7.935541 2.879753-7.872199 6.399879 0 3.520127 3.520127 6.399879 7.872199 6.399879h27.135952c4.3513 0 7.872199-2.879753 7.872199-6.399879s-3.520127-6.399879-7.872199-6.399879H326.725365zM371.907664 775.861578c0 49.624749 40.23002 89.854769 89.854768 89.854769s89.854769-40.23002 89.854769-89.854769-40.23002-89.854769-89.854769-89.854769-89.854769 40.23002-89.854768 89.854769z" p-id="2999" fill="#0ba7fa"></path></svg>