<?xml version="1.0" standalone="no"?><!DOCTYPE svg PUBLIC "-//W3C//DTD SVG 1.1//EN" "http://www.w3.org/Graphics/SVG/1.1/DTD/svg11.dtd"><svg t="1617885874651" class="icon" viewBox="0 0 1024 1024" version="1.1" xmlns="http://www.w3.org/2000/svg" p-id="4640" data-spm-anchor-id="a313x.7781069.0.i3" width="61" height="61" xmlns:xlink="http://www.w3.org/1999/xlink"><defs><style type="text/css"></style></defs><path d="M511.870936 521.741312a175.045167 175.045167 0 0 1-174.841516-174.841516V205.796529a13.57676 13.57676 0 1 1 27.153521 0v141.103267a147.687996 147.687996 0 0 0 295.375991 0V205.796529a13.57676 13.57676 0 0 1 27.15352 0v141.103267a175.045167 175.045167 0 0 1-174.841516 174.841516zM767.724979 973.059969c-2.498124 0-5.036978 0-7.643716-0.162921a13.57676 13.57676 0 0 1 1.072565-27.15352c35.747609 1.357676 61.950756-8.227517 77.835565-28.660541 13.087997-16.821606 17.337523-39.589832 11.377325-60.905345l-22.415231-80.102884c0-0.203651-0.108614-0.42088-0.149344-0.624531a325.394208 325.394208 0 0 0-111.533084-178.928121 13.57676 13.57676 0 1 1 17.106717-21.084708 352.561305 352.561305 0 0 1 120.833165 193.618175l22.33377 79.872079c8.268247 29.570183 2.253742 61.312648-16.088461 84.895481-14.174137 18.138551-41.61277 39.236837-92.729271 39.236836z" fill="#515151" p-id="4641"></path><path d="M259.859116 975.19152c-30.357635 0-55.325297-5.82443-74.387068-17.391829A84.881904 84.881904 0 0 1 148.230995 910.864831a94.114101 94.114101 0 0 1-1.357676-52.175488l22.686766-89.511579a351.746699 351.746699 0 0 1 505.720735-232.053983 13.57676 13.57676 0 0 1-12.626387 24.044442 329.250008 329.250008 0 0 0-150.783497-37.186746 318.089911 318.089911 0 0 0-49.663788 3.964414C330.363231 548.10738 225.876486 645.235521 195.953307 775.409496l-0.081461 0.298689-22.713919 89.606616a66.947004 66.947004 0 0 0 0.909643 37.118862c13.658221 42.087956 63.104781 47.708735 102.178696 44.979806a13.57676 13.57676 0 0 1 1.900746 27.085637q-9.422271 0.692415-18.287896 0.692414z" fill="#515151" p-id="4642"></path><path d="M563.652699 514.559206l-25.795844 51.591688a29.149304 29.149304 0 0 1-51.903954 0l-25.795844-51.591688a326.887652 326.887652 0 0 1 103.563526 0z" fill="#515151" p-id="4643"></path><path d="M511.870936 595.653193a42.766794 42.766794 0 0 1-38.014928-23.270566 1.126871 1.126871 0 0 1-0.095037-0.176498l-25.795844-51.591688a13.57676 13.57676 0 0 1 10.033225-19.482651 340.776677 340.776677 0 0 1 107.799475 0 13.57676 13.57676 0 0 1 10.033226 19.482651l-25.795844 51.591688a1.126871 1.126871 0 0 1-0.095037 0.176498 42.766794 42.766794 0 0 1-38.069236 23.270566z m-13.889025-35.693302a15.558967 15.558967 0 0 0 27.778051 0L542.975294 525.542805c-10.426952-1.031834-20.82675-1.561327-31.090781-1.561328s-20.663829 0.529494-31.09078 1.561328z" fill="#515151" p-id="4644"></path><path d="M479.992704 727.45638l12.083316-127.553661a19.917107 19.917107 0 0 1 19.794916-17.826286 19.917107 19.917107 0 0 1 19.794916 17.826286l10.861409 86.348194" fill="#515151" p-id="4645"></path><path d="M480.006281 741.03314h-1.357676a13.57676 13.57676 0 0 1-12.219085-14.798668l12.083317-127.621545a0.515917 0.515917 0 0 1 0-0.135767 33.48029 33.48029 0 0 1 66.526124-0.162922l10.861408 86.23958a13.57676 13.57676 0 1 1-26.936292 3.39419l-10.861408-86.348194v-0.271535a6.32677 6.32677 0 0 0-12.57208 0l-12.069739 127.458623a13.57676 13.57676 0 0 1-13.454569 12.246238z" fill="#515151" p-id="4646"></path><path d="M673.135692 205.796529s17.921323-125.422109-53.750393-125.42211c0 0 35.82907-89.606616-173.470263-61.353378-61.950756 8.363284-100.155759 71.78033-95.838349 134.151966 0.325842 4.751866 0.529494 9.503732 0.529494 14.377789v38.245733" fill="#515151" p-id="4647"></path><path d="M673.149269 219.373289a13.15588 13.15588 0 0 1-1.9279-0.135768 13.57676 13.57676 0 0 1-11.526669-15.341739c2.715352-19.536958 5.430704-75.405325-15.097357-99.042464-6.462538-7.440065-14.472826-10.861408-25.212044-10.861408a13.57676 13.57676 0 0 1-11.404478-5.946621 13.305225 13.305225 0 0 1-1.235485-12.61281c0.448033-1.262639 4.738289-14.255598-4.371717-25.6465-10.277607-12.857192-44.04301-32.190498-154.639297-17.269639-57.307504 7.738753-87.773754 66.960581-84.108029 119.760601 0.380149 5.498588 0.556647 10.508412 0.556648 15.314585v38.245733a13.57676 13.57676 0 0 1-27.153521 0v-38.286463c0-4.181642-0.162921-8.580512-0.50234-13.440993-2.335203-33.724672 6.924148-68.671252 25.388542-95.892656 20.012144-29.5023 49.202178-48.197498 82.180128-52.650675 95.03732-12.816461 155.562517-3.475651 179.919224 27.764474a53.76397 53.76397 0 0 1 11.255134 35.299576 57.348234 57.348234 0 0 1 29.868872 18.39651c32.828606 37.879161 21.912891 117.33036 21.437705 120.697397a13.57676 13.57676 0 0 1-13.427416 11.64886z" fill="#515151" p-id="4648"></path><path d="M554.325465 214.906535q-15.599697 0-32.950797-1.194755a664.460213 664.460213 0 0 1-84.89548-11.676014c-31.226548 12.395582-56.126326 12.61281-74.224147 0.624531C337.314532 186.13738 337.02942 153.417389 337.02942 152.059712a13.57676 13.57676 0 0 1 27.153521 0c0 0.583801 0.515917 19.849223 13.183034 28.117471 10.657757 6.964878 28.823462 5.335667 52.555638-4.711136a13.57676 13.57676 0 0 1 8.2954-0.746722c42.685334 9.625923 162.921121 27.058483 205.973027-7.385757 10.345491-8.268247 15.368892-19.102501 15.368892-33.127295a13.57676 13.57676 0 0 1 27.15352 0c0 22.496691-8.607666 40.73028-25.578616 54.30704-21.994351 17.541174-57.850575 26.393222-106.808371 26.393222z m-190.074641-62.860399z" fill="#515151" p-id="4649"></path><path d="M492.374709 912.208931a13.57676 13.57676 0 0 1-13.386685-11.485939l-20.650253-132.427718a13.57676 13.57676 0 1 1 26.827678-4.181642l20.650252 132.427718a13.57676 13.57676 0 0 1-11.323018 15.50466 14.03837 14.03837 0 0 1-2.117974 0.162921z" fill="#515151" p-id="4650"></path><path d="M424.341564 943.666284a13.57676 13.57676 0 0 1-10.345491-22.388078l61.679221-72.24194a13.57676 13.57676 0 1 1 20.650252 17.649788l-61.692798 72.24194a13.57676 13.57676 0 0 1-10.291184 4.73829zM592.992078 749.600076a13.57676 13.57676 0 0 1-10.196147-22.537422l134.409924-153.132277L685.123971 553.93181l-165.636472 180.367257a13.57676 13.57676 0 1 1-19.957838-18.342203l166.899112-181.77924a24.438168 24.438168 0 0 1 31.810348-4.073028l36.75229 22.863264 0.570224 0.366572a22.455961 22.455961 0 0 1 9.381541 15.92554A28.07674 28.07674 0 0 1 738.480638 590.860597l-135.278837 154.109803a13.57676 13.57676 0 0 1-10.209723 4.629676zM334.680641 930.266021a13.57676 13.57676 0 0 1-10.033226-22.727496l137.125277-150.484808a13.57676 13.57676 0 1 1 20.066451 18.287896L344.754597 925.826421a13.57676 13.57676 0 0 1-10.073956 4.4396z" fill="#515151" p-id="4651"></path><path d="M744.644487 1009.581454a235.353135 235.353135 0 1 0-461.460497 0.841759l229.026365-36.480754z" fill="#515151" p-id="4652"></path><path d="M283.170413 1023.999973a13.57676 13.57676 0 0 1-13.291648-10.861408 250.233264 250.233264 0 0 1-4.982671-49.799556c0-137.261044 111.668851-248.929895 248.929896-248.929895s248.929895 111.668851 248.929895 248.929895a250.640567 250.640567 0 0 1-4.806173 48.876336 13.57676 13.57676 0 0 1-15.396046 10.779948l-230.329734-35.299577-226.908391 36.127759a12.816461 12.816461 0 0 1-2.145128 0.176498z m230.655577-282.396609c-122.285878 0-221.776375 99.490498-221.776376 221.776375a224.695379 224.695379 0 0 0 2.226589 31.579544l215.870485-34.376356a13.495299 13.495299 0 0 1 4.181642 0l219.223944 33.602481a224.260922 224.260922 0 0 0 2.117975-30.805669c-0.067884-122.340185-99.558381-221.830682-221.844259-221.830682z" fill="#515151" p-id="4653"></path><path d="M707.878621 1002.602999c0-0.285112 0.122191-0.570224 0.190075-0.855336a198.777344 198.777344 0 1 0-388.458259 0.095037l191.663122 0.760299z" fill="#515151" p-id="4654"></path><path d="M707.878621 1016.179759H511.273559l-191.717429-0.760299a13.57676 13.57676 0 0 1-13.210187-10.68491 213.725357 213.725357 0 0 1-4.874057-45.427839c0-117.085979 95.268125-212.354104 212.354104-212.354104s212.354104 95.268125 212.354104 212.354104a213.67105 213.67105 0 0 1-4.846904 45.373532l-0.217228 0.977527a13.57676 13.57676 0 0 1-13.237341 10.521989zM330.892725 988.388131l180.435141 0.705992h185.322775a187.237098 187.237098 0 0 0 2.375933-29.719528c0-102.110812-83.076195-185.200584-185.200584-185.200584s-185.200584 83.089771-185.200584 185.200584a186.476799 186.476799 0 0 0 2.267319 29.013536zM306.603901 865.233341a13.57676 13.57676 0 0 1-13.57676-12.857192c-3.652148-68.698406 14.852975-138.224994 15.640428-141.198304a13.57676 13.57676 0 1 1 26.216723 7.073492c-0.244382 0.92322-18.152128 68.494754-14.744361 132.644945a13.57676 13.57676 0 0 1-12.830038 14.269175zM723.953505 865.233341h-0.733145a13.57676 13.57676 0 0 1-12.830038-14.269175c3.421344-64.40815-14.567864-131.966108-14.744362-132.644946a13.57676 13.57676 0 1 1 26.216724-7.073492c0.787452 2.93258 19.292576 72.459168 15.640428 141.198305a13.57676 13.57676 0 0 1-13.549607 12.789308z" fill="#515151" p-id="4655"></path><path d="M492.741281 914.842822a13.57676 13.57676 0 0 1-13.400262-11.485939l-21.057555-135.061609a13.57676 13.57676 0 1 1 26.827678-4.181642l21.057555 135.061609a13.57676 13.57676 0 0 1-11.323018 15.50466 12.314121 12.314121 0 0 1-2.104398 0.162921zM456.464179 948.676108a13.861872 13.861872 0 0 1-2.104398-0.162921L318.171301 927.292711a13.57676 13.57676 0 0 1 4.181642-26.827678l136.18848 21.234053a13.57676 13.57676 0 0 1-2.077244 26.990599zM567.970109 948.323112a13.57676 13.57676 0 0 1-1.995784-27.004175l139.012446-20.881057a13.57676 13.57676 0 0 1 4.073028 26.854831l-139.053176 20.881057a14.676478 14.676478 0 0 1-2.036514 0.149344zM531.84235 914.842822a12.314121 12.314121 0 0 1-2.104397-0.162921 13.57676 13.57676 0 0 1-11.323018-15.50466l21.057555-135.061609a13.57676 13.57676 0 1 1 26.827677 4.181642l-21.057554 135.061609a13.57676 13.57676 0 0 1-13.400263 11.485939z" fill="#515151" p-id="4656"></path><path d="M554.895689 1015.338H469.660789a13.57676 13.57676 0 0 1-9.503732-3.910107 74.183417 74.183417 0 1 1 104.283094 0 13.57676 13.57676 0 0 1-9.544462 3.910107z m-79.206818-27.15352h73.219467a47.043474 47.043474 0 1 0-73.219467 0z" fill="#515151" p-id="4657"></path></svg>