<?xml version="1.0" standalone="no"?><!DOCTYPE svg PUBLIC "-//W3C//DTD SVG 1.1//EN" "http://www.w3.org/Graphics/SVG/1.1/DTD/svg11.dtd"><svg t="1617021851729" class="icon" viewBox="0 0 1024 1024" version="1.1" xmlns="http://www.w3.org/2000/svg" p-id="38768" width="50" height="50" xmlns:xlink="http://www.w3.org/1999/xlink"><defs><style type="text/css"></style></defs><path d="M554.41 897.187c16.52 0 29.913 13.39 29.913 29.906 0 16.281-13.013 29.524-29.207 29.899l-0.707 0.008H407.145c-16.52 0-29.913-13.39-29.913-29.907 0-16.28 13.013-29.523 29.207-29.898l0.706-0.008H554.41z m40.268-84.377c16.52 0 29.913 13.39 29.913 29.907 0 16.28-13.013 29.523-29.207 29.898l-0.706 0.009H365.323c-16.52 0-29.913-13.39-29.913-29.907 0-16.281 13.013-29.524 29.207-29.899l0.706-0.008h229.355zM480 69c189.986 0 344 153.982 344 343.927 0 120.12-61.593 225.858-154.926 287.365l-2.205 10.384c-1.519 7.084-3.529 16.359-6.03 27.826-5.927 27.183-29.801 46.65-57.546 47.072H356.239c-28.52 0-53.076-20.128-58.666-48.09l-2.757-13.628c-3.321-16.19-5.226-24.448-5.715-24.775C196.791 637.403 136 532.263 136 412.927 136 222.982 290.014 69 480 69z m-62.585 133.938C316.255 221.817 266.292 290.58 260.3 399.042c-0.911 16.492 11.722 30.6 28.218 31.51 16.495 0.912 30.606-11.72 31.517-28.211 4.58-82.907 36.8-127.25 108.358-140.605 16.24-3.031 26.947-18.65 23.916-34.887-3.032-16.237-18.654-26.942-34.894-23.911z" fill="#f4ea2a" p-id="38769"></path></svg>