<?xml version="1.0" standalone="no"?><!DOCTYPE svg PUBLIC "-//W3C//DTD SVG 1.1//EN" "http://www.w3.org/Graphics/SVG/1.1/DTD/svg11.dtd"><svg t="1617026684403" class="icon" viewBox="0 0 1024 1024" version="1.1" xmlns="http://www.w3.org/2000/svg" p-id="3963" xmlns:xlink="http://www.w3.org/1999/xlink" width="50" height="50"><defs><style type="text/css"></style></defs><path d="M821.090462 6.419692H216.064C172.662154 6.419692 137.334154 35.84 137.334154 85.149538v827.707077c0 43.401846 35.524923 78.690462 78.729846 78.690462h605.026462a78.966154 78.966154 0 0 0 78.729846-78.690462V82.865231c0-43.165538-35.328-76.445538-78.729846-76.445539z m26.978461 865.949539c0 37.100308-30.326154 67.465846-67.465846 67.465846H258.796308a67.347692 67.347692 0 0 1-52.617846-25.403077l398.966153-75.815385c51.751385-11.264 74.24-29.223385 74.24-74.24V229.100308c0-40.96-26.978462-65.260308-74.200615-74.24L197.632 90.545231a67.938462 67.938462 0 0 1 61.164308-39.148308h521.846154c37.100308 0 67.426462 30.326154 67.426461 67.465846V872.369231z m-328.349538-343.04c0-30.326154 24.733538-55.099077 55.099077-55.099077 30.326154 0 55.099077 24.772923 55.099076 55.138461 0 30.326154-24.733538 55.099077-55.138461 55.099077-30.326154 0-55.059692-24.733538-55.059692-55.138461z" p-id="3964" fill="#515151"></path></svg>