<?xml version="1.0" standalone="no"?><!DOCTYPE svg PUBLIC "-//W3C//DTD SVG 1.1//EN" "http://www.w3.org/Graphics/SVG/1.1/DTD/svg11.dtd"><svg t="1616981259828" class="icon" viewBox="0 0 1024 1024" version="1.1" xmlns="http://www.w3.org/2000/svg" p-id="15885" xmlns:xlink="http://www.w3.org/1999/xlink" width="64" height="64"><defs><style type="text/css"></style></defs><path d="M253.55239 519.192976v237.368195h536.775805V504.60722c-7.292878-142.460878-124.178732-255.650341-268.437854-255.650342-144.259122 0-261.144976 113.189463-268.437853 255.650342v14.585756z m542.270439-202.602147l122.380488-87.614439c9.091122-7.292878 10.989268-20.08039 5.494634-29.171512-7.292878-9.091122-20.08039-10.989268-29.171512-5.494634l-122.380488 87.614439c-9.091122 7.292878-10.989268 20.08039-5.494634 29.171512 7.292878 9.091122 20.08039 10.989268 29.171512 5.494634z m-635.379512 545.96683v49.251902h723.093854v-47.453659c0-41.959024-34.666146-76.725073-76.725073-76.725073H238.966634c-43.857171-1.798244-78.523317 32.867902-78.523317 74.92683z m361.546927-664.650927c10.989268 0 20.08039-9.091122 20.08039-20.080391V28.072585c0-10.989268-9.091122-20.08039-20.08039-20.08039-10.989268 0-20.08039 9.091122-20.08039 20.08039V177.826341c0 10.889366 9.091122 20.08039 20.08039 20.080391zM248.057756 323.883707c9.091122 7.292878 21.878634 5.494634 29.171512-1.798244 7.292878-9.091122 5.494634-21.878634-1.798244-29.171512l-114.987707-96.805463c-9.091122-7.292878-21.878634-5.494634-29.171512 1.798244-7.292878 9.091122-5.494634 21.878634 1.798244 29.171512l114.987707 96.805463z m-47.453658 217.287805c0-10.989268-9.091122-20.08039-20.080391-20.08039H30.769951c-10.989268 0-20.08039 9.091122-20.08039 20.08039 0 10.989268 9.091122 20.08039 20.08039 20.08039h149.753756c10.989268 0 20.08039-9.191024 20.080391-20.08039z m-87.614439 372.436293h821.697561v98.603707H112.989659v-98.603707z m883.736975-392.516683H846.972878c-10.989268 0-20.08039 9.091122-20.08039 20.08039 0 10.989268 9.091122 20.08039 20.08039 20.08039h149.753756c10.989268 0 20.08039-9.091122 20.08039-20.08039 0-10.989268-9.191024-20.08039-20.08039-20.08039z m0 0" fill="#515151" p-id="15886"></path></svg>