<?xml version="1.0" standalone="no"?><!DOCTYPE svg PUBLIC "-//W3C//DTD SVG 1.1//EN" "http://www.w3.org/Graphics/SVG/1.1/DTD/svg11.dtd"><svg t="1617193313052" class="icon" viewBox="0 0 1024 1024" version="1.1" xmlns="http://www.w3.org/2000/svg" p-id="2879" width="35" height="35" xmlns:xlink="http://www.w3.org/1999/xlink"><defs><style type="text/css"></style></defs><path d="M831.888631 81.80368c19.933175 23.436582 37.950695 52.154161 53.603846 85.203538 41.868297 88.396297 67.772796 209.514066 67.772796 342.50545 0 132.905093-25.904499 254.022862-67.772796 342.419159-17.586065 37.105045-38.106018 68.67022-60.904048 93.487455-63.130351 68.635704-161.881544 69.964582-247.723633 75.435419-62.47454 3.969377-125.259728 4.383573-187.578945-1.259846-45.527027-4.141958-117.424523-14.738469-155.099087-41.074422C139.094301 911.990225 70.734727 728.639529 70.734727 512.791718 70.734727 320.138874 125.115191 153.407787 204.433696 72.501532c49.755276-50.825282 119.443728-60.50711 186.457164-66.685532 66.754564-6.161163 131.610731-7.265686 195.086244-4.055668C676.099218 6.437294 769.086185 7.852463 831.888631 81.80368M724.801746 113.972891c21.520926 0 41.177971 9.146825 58.608713 25.921757l-1.50146-7.645365c-24.851751-29.356131-52.516582-45.992997-81.078837-45.992997-46.372677 0-90.294695 43.801211-123.792784 114.473378-37.05327 78.248499-59.972107 187.354589-59.972107 308.783005 0 121.359383 22.901579 230.448215 59.972107 308.696714 33.480831 70.758457 77.420107 114.473378 123.792784 114.473378 38.451181 0 75.211063-30.150006 105.775265-80.819965l1.518718-16.015573c-22.642706 36.570042-50.894315 57.31435-83.30514 57.31435-51.325769 0-92.227609-52.085128-116.820487-136.339467-19.260107-65.908914-31.168238-155.582315-31.168238-253.246245 0-97.698446 11.890872-187.33733 31.168238-253.246245C632.591395 166.058019 673.493235 113.972891 724.801746 113.972891M768.171503 284.052061c-10.751834-36.77714-18.673329-59.419846-21.244795-59.419846-2.519691 0-10.458445 22.642706-21.210279 59.419846-16.067347 55.07079-26.025306 132.594446-26.025306 219.523799 0 86.912095 9.957959 164.45301 26.025306 219.523799 10.734576 36.690849 18.673329 59.419846 21.210279 59.419846 2.571466 0 10.492961-22.728997 21.244795-59.419846 16.050089-55.07079 26.008048-132.628962 26.008048-219.523799C794.179551 416.646507 784.221592 339.122851 768.171503 284.052061M378.102563 189.87428c-10.803608 25.473045-20.036724 52.344-27.699347 80.198671l123.948108-0.914682c7.386493-28.976451 16.291703-57.262576 26.750149-84.357888L378.102563 189.87428zM275.727156 114.369829c-16.947513 19.122042-31.927597 40.608451-45.061057 63.872451l97.888285 0.310647c11.390386-24.437555 24.316748-47.408166 38.899893-68.791027L275.727156 114.369829zM468.19016 51.584641c-1.656783 1.639525-3.313567 3.261792-4.918576 4.987608-19.518979 20.243822-36.86343 43.266208-52.188677 68.497638l116.50984 0.310647c14.531371-28.441448 31.133721-55.07079 49.824309-79.26673L468.19016 51.584641zM265.285969 933.856314l101.339918 8.905211c-14.514113-25.14514-27.664831-52.568356-39.331347-81.820938l-104.480903-5.867775C235.394835 884.032005 249.598301 910.488765 265.285969 933.856314M422.024581 896.544171l118.632594 10.51022c-15.704926-26.870956-29.615003-56.675799-41.609425-88.914042l-122.809069-6.799715C389.354884 843.26823 404.662872 872.020326 422.024581 896.544171M196.581233 783.813868l107.345757 9.457472c-7.78343-26.146113-14.514113-53.241425-20.174789-80.888998l-107.03511-5.936807C182.239701 733.092135 188.884093 759.013892 196.581233 783.813868M353.699524 745.880432l125.760214 11.16603c-7.766172-28.113543-14.203466-57.486932-19.277365-87.61968l-125.484084-6.93778C339.685898 691.379161 346.054159 719.337381 353.699524 745.880432M95.638253 625.867185l0.552261 0L96.104223 625.1596 95.638253 625.867185zM157.57779 552.934199l0.138065 2.882113c1.190813 24.523846 3.261792 48.961401 6.212938 73.105567l107.086885 4.763252c-3.071953-25.162398-5.263739-50.549152-6.47181-76.004938l-0.155323-3.503407L157.57779 552.934199zM321.012569 501.315041 320.978052 502.160691c0.069033 27.181603 1.242588 54.276914 3.503407 80.906256l125.535858 5.62616c-2.398884-27.95822-3.641472-56.313377-3.675988-84.720309l0-1.173555L321.012569 501.315041zM163.014111 400.889806c-3.020178 24.903525-4.987608 50.359312-5.885033 75.901389l106.638173 2.968404c0.759359-26.629341 2.62324-53.172392 5.574386-79.422054L163.014111 400.889806zM333.611026 346.371278c-4.538896 26.784665-7.835205 54.121591-9.906184 81.61384l125.087146 3.503407c2.001947-28.821128 5.246481-57.469674 9.768119-85.721282L333.611026 346.371278zM197.720271 250.795586c-8.594564 23.660938-15.773959 48.495431-21.607217 74.175573l105.309294-0.690326c5.488095-26.715632 12.28781-52.706422 20.485436-77.782529L197.720271 250.795586z" p-id="2880" fill="#707070"></path></svg>