<?xml version="1.0" standalone="no"?><!DOCTYPE svg PUBLIC "-//W3C//DTD SVG 1.1//EN" "http://www.w3.org/Graphics/SVG/1.1/DTD/svg11.dtd"><svg t="1616993959021" class="icon" viewBox="0 0 1024 1024" version="1.1" xmlns="http://www.w3.org/2000/svg" p-id="34217" width="32" height="32" xmlns:xlink="http://www.w3.org/1999/xlink"><defs><style type="text/css"></style></defs><path d="M670.76639 996.94c-67.03 21.81-134.25 29.7-201.66 23.68-67.41-6.01-130.3-23.68-188.67-53.02-58.37-29.33-109.96-69.19-154.78-119.57-44.81-50.38-78.14-109.04-99.98-175.98C3.83639 605.12-4.07361 538 1.95639 470.69c6.02-67.3 23.72-130.29 53.1-188.95 29.37-58.66 69.48-110.36 120.31-155.11C226.20639 81.89 285.14639 48.61 352.17639 26.8 419.21639 4.99 486.43639-2.9 553.84639 3.12c67.41 6.01 130.3 23.87 188.67 53.58 58.37 29.71 109.96 69.75 154.78 120.14 44.82 50.39 78.14 109.05 99.99 175.98 21.84 66.93 29.75 134.05 23.72 201.36-6.02 67.31-23.72 130.1-53.1 188.39-29.37 58.28-69.48 109.8-120.32 154.54-50.84 44.74-109.78 78.02-176.82 99.83z m233.87-615.93c-18.08-54.15-45.2-101.71-81.35-142.7-36.15-40.99-77.76-73.33-124.84-97.02-47.08-23.68-97.91-37.98-152.52-42.87-54.6-4.89-109.02 1.69-163.25 19.74-54.23 18.05-101.86 45.12-142.91 81.22s-73.44 77.64-97.16 124.65c-23.73 47-38.22 97.76-43.5 152.29-5.28 54.52 1.13 108.86 19.2 163.01 18.08 54.15 45.19 101.71 81.35 142.7 36.15 40.99 77.95 73.32 125.4 97.01 47.45 23.69 98.48 37.98 153.08 42.87 54.6 4.89 109.02-1.69 163.25-19.74 54.23-18.05 101.86-45.13 142.91-81.22 41.05-36.1 73.44-77.65 97.16-124.65 23.72-47.01 38.03-97.77 42.93-152.29 4.91-54.52-1.67-108.85-19.75-163zM627.84639 866.08c-48.96 15.79-97.91 21.62-146.87 17.49-48.96-4.14-94.9-16.92-137.83-38.36-42.93-21.43-80.78-50.57-113.54-87.43-32.76-36.85-57.05-79.71-72.87-128.6-15.82-48.88-21.65-97.95-17.51-147.21 4.15-49.25 16.95-95.32 38.41-138.18 21.46-42.87 50.84-80.66 88.12-113.37 37.28-32.71 80.4-56.97 129.36-72.76s97.91-21.44 146.87-16.92c48.96 4.51 94.9 17.48 137.83 38.92 42.93 21.43 80.78 50.57 113.54 87.43 32.76 36.85 57.05 79.71 72.87 128.6 15.82 48.89 21.65 97.95 17.51 147.21-4.15 49.25-16.95 95.13-38.41 137.62-21.46 42.49-50.84 80.09-88.12 112.81-37.28 32.71-80.41 56.96-129.36 72.75zM511.47639 443.06c-19.58 0-35.96 6.58-49.14 19.74-13.18 13.16-19.77 29.52-19.77 49.07 0 19.56 6.59 36.1 19.77 49.64s29.56 20.31 49.14 20.31c19.59 0 36.16-6.77 49.71-20.31 13.56-13.53 20.34-30.08 20.34-49.64 0-19.55-6.78-35.91-20.34-49.07-13.56-13.16-30.13-19.74-49.71-19.74zM249.37639 330.25l160.43 92.5c3.76-2.25 7.53-4.89 11.3-7.9 3.76-2.25 7.34-4.89 10.74-7.9 3.39-3.01 6.96-5.64 10.73-7.9 9.04-5.26 17.7-9.02 25.98-11.28 4.52-1.5 9.04-2.63 13.56-3.39v-185c-12.8 0.75-25.99 2.63-39.54 5.64-12.05 3.01-25.61 6.96-40.67 11.85-15.06 4.89-31.26 12.22-48.58 22-19.58 11.28-35.97 22.37-49.14 33.28-13.18 10.9-23.92 20.49-32.2 28.77-9.06 9.78-16.59 19.56-22.61 29.33z m-28.25 314.73l161.56-92.5c-1.5-4.51-2.63-9.02-3.39-13.53-0.75-3.76-1.32-7.9-1.7-12.41-0.38-4.51-0.56-9.02-0.56-13.53 0-10.53 1.13-19.93 3.39-28.21 0.75-4.51 1.88-9.02 3.39-13.53l-159.29-92.5c-5.27 10.53-10.17 22.56-14.69 36.1-3.76 11.28-7.34 25.01-10.73 41.17-3.39 16.17-5.08 34.03-5.08 53.58-0.75 22.56 0.38 42.31 3.39 59.23 3.01 16.92 6.4 31.02 10.17 42.3 3.75 13.53 8.27 24.81 13.54 33.83zM480.97639 826.6l1.13-186.13c-4.52-0.75-9.04-2.26-13.56-4.52-8.29-2.26-16.19-6.02-23.72-11.28-4.52-2.26-8.66-4.89-12.43-7.9-3.76-3.01-7.16-6.02-10.17-9.02-3.01-3.01-6.4-6.02-10.17-9.02l-159.3 91.37c6.78 10.53 14.69 21.05 23.73 31.58 8.29 9.02 18.45 18.8 30.5 29.33 12.05 10.53 26.74 21.05 44.07 31.58 18.83 11.28 36.34 19.93 52.53 25.94 16.19 6.02 29.94 10.53 41.24 13.54 13.55 3.02 25.6 4.53 36.15 4.53z m291.47-130.86l-160.43-92.5c-3.76 3.01-7.16 6.02-10.17 9.02-3.01 2.26-6.4 4.7-10.17 7.34-3.77 2.63-7.53 5.08-11.3 7.33-4.52 3.01-9.23 5.27-14.13 6.77-4.89 1.5-9.22 3.01-12.99 4.51-4.52 1.51-8.66 2.64-12.43 3.39v185c12.05-0.75 24.86-2.64 38.41-5.64 12.05-2.26 25.8-6.02 41.24-11.28 15.44-5.27 31.82-12.79 49.14-22.56 19.58-10.53 35.78-21.24 48.58-32.15 12.8-10.91 23.35-20.87 31.64-29.89 9.06-9.79 16.59-19.56 22.61-29.34z m28.25-316.98l-160.43 92.5 2.26 13.53c0.75 3.76 1.32 8.09 1.7 12.97 0.38 4.89 0.56 9.21 0.56 12.97 0 5.27-0.38 10.53-1.13 15.79-0.75 5.27-1.51 9.78-2.26 13.54a88.097 88.097 0 0 0-3.39 13.53l159.3 91.38c5.27-10.53 10.17-22.56 14.69-36.1 3.76-11.28 7.34-25.01 10.73-41.17 3.39-16.17 5.08-34.03 5.08-53.58 0-21.81-1.32-41.36-3.95-58.66-2.64-17.3-5.84-31.59-9.61-42.87-3.76-13.53-8.28-24.81-13.55-33.83zM541.97639 197.14v186.13l13.56 4.51c3.76 1.5 7.72 3.2 11.86 5.08s8.09 3.95 11.86 6.2c3.77 3.01 7.72 5.83 11.86 8.46 4.15 2.63 7.72 5.45 10.73 8.46l10.17 10.15 159.3-92.5c-6.78-9.78-14.69-19.93-23.73-30.46-8.29-9.02-18.45-18.99-30.5-29.89-12.05-10.9-26.74-21.62-44.06-32.15-19.59-11.28-37.47-19.74-53.66-25.39-16.19-5.64-29.94-9.97-41.24-12.97-13.55-3-25.6-4.88-36.15-5.63z m0 0" fill="#2c2c2c" p-id="34218"></path></svg>